<svg xmlns="http://www.w3.org/2000/svg" viewBox="0 0 154.77172 167.53604"><defs><style>.cls-1{fill:#4cb548;}.cls-2{fill:#b6e2b3;}.cls-3{fill:#727272;}</style></defs><g id="Calque_2" data-name="Calque 2"><g id="Calque_1-2" data-name="Calque 1"><path class="cls-1" d="M126.15945,127.28363,107.7163,142.61256a46.84262,46.84262,0,0,0-19.653-6.311,47.41163,47.41163,0,0,0-21.66836,3.049L53.2423,123.533l-1.30795-1.56758a.03057.03057,0,0,0,.02023-.00959L73.058,113.86389a.29062.29062,0,0,1,.09024-.01808,71.8053,71.8053,0,0,1,27.69877,1.31762c.01981.01042.03982.01084.05914.0212A69.48579,69.48579,0,0,1,126.15945,127.28363Z"/><path class="cls-1" d="M96.71039,151.69455,86.70972,162.703l-8.93934-8.11376-1.60382-1.44943,3.62624-1.59292.00969-.00116a34.87573,34.87573,0,0,1,6.48708-.91859,33.69461,33.69461,0,0,1,7.1371.39343l.02036-.00244A32.55322,32.55322,0,0,1,96.71039,151.69455Z"/><path class="cls-1" d="M154.77172,102.09056l-16.271,16.42858a86.42883,86.42883,0,0,0-7.28541-5.2964A85.40966,85.40966,0,0,0,42.716,110.78618L31.26822,97.04505,29.98856,95.5092a110.62922,110.62922,0,0,1,79.2388-16.192A106.21219,106.21219,0,0,1,143.15154,93.487a108.67989,108.67989,0,0,1,10.07581,7.31251C153.73909,101.21981,154.26039,101.65028,154.77172,102.09056Z"/><path class="cls-2" d="M128.89245,126.23038l-19.63729,19.805a45.5004,45.5004,0,0,0-42.215.7602L47.34258,127.28081l.00021-.01A68.92926,68.92926,0,0,1,53.2423,123.533L66.395,139.35054a47.41163,47.41163,0,0,1,21.66836-3.049,46.84262,46.84262,0,0,1,19.653,6.311l18.44315-15.32893a69.48579,69.48579,0,0,0-25.2533-12.099A71.33734,71.33734,0,0,1,128.89245,126.23038Z"/><path class="cls-2" d="M102.04177,153.31662,87.95228,167.536l-14.121-13.99739a33.21476,33.21476,0,0,1,3.32619-1.23092l7.71834,9.28289,11.44032-9.5036a32.55718,32.55718,0,0,0-3.13689-1.12563A36.04777,36.04777,0,0,1,102.04177,153.31662Z"/><polygon points="45.347 127.386 45.347 127.395 45.347 127.395 45.347 127.386 45.347 127.386"/><rect x="45.34539" y="127.32704" width="2.00018" height="0.00736" transform="translate(-7.36668 2.92807) rotate(-3.35243)"/><polygon class="cls-3" points="49.34 127.152 47.344 127.269 47.344 127.273 49.34 127.152"/><path class="cls-2" d="M130.24492,112.21555A85.35413,85.35413,0,0,0,40.02141,117.196L23.47925,100.79768q3.34-2.571,6.833-4.84862l11.43559,13.7513a85.40968,85.40968,0,0,1,88.49707,2.51519Z"/><path class="cls-1" d="M92.43335,56.78226c.37613.56652.74207,1.14262,1.108,1.71872-19.58425,7.66313-39.31251,7.91344-55.1033-2.26809-.01025-.00044-.00982-.01044-.01958-.01086a50.88691,50.88691,0,0,1-8.85164-10.25615A63.66155,63.66155,0,0,1,23.38323,33.9417c-3.257-8.35627-8.182-18.67528-17.72307-26.37852C25.60609-.605,51.12466.91287,71.68455,11.68794a62.5423,62.5423,0,0,1,21.5558,17.934.01.01,0,0,0,.00982.01044,48.86478,48.86478,0,0,1,2.91336,4.44807C79.89531,22.64749,63.83132,13.4752,43.93879,14.289c1.379.51914,2.73724,1.0575,4.09458,1.61579l-6.80469-.50019-.00976-.00041-2.12546-.16065,8.68709,4.48391C68.64082,30.49545,82.816,42.18952,92.43335,56.78226Z"/><path class="cls-2" d="M97.51839,32.58681q-2.14329-1.50263-4.26822-2.95442a.01.01,0,0,1-.00982-.01044,62.5423,62.5423,0,0,0-21.5558-17.934C51.12466.91287,25.60609-.605,5.66016,7.56318c9.541,7.70324,14.466,18.02225,17.72307,26.37852a63.66155,63.66155,0,0,0,6.18361,12.02418,62.06469,62.06469,0,0,1-8.96767-12.92356C16.41279,25.11691,10.34993,15.42,0,8.85339,18.88946-1.53179,44.41192-2.92646,66.06545,5.443,80.94405,11.19176,92.09133,20.89513,97.51839,32.58681Z"/><path class="cls-2" d="M97.04978,54.857q-2.3265,1.0419-4.61643,1.92525C82.816,42.18952,68.64082,30.49545,47.78055,19.72749l-8.68709-4.48391,2.12546.16065.00976.00041,1.99942.7558C68.81886,25.85881,85.52314,37.85083,97.04978,54.857Z"/></g></g></svg>