<svg xmlns="http://www.w3.org/2000/svg" viewBox="0 0 33.26999 33.27002"><defs><style>.cls-1{fill:#fff;}</style></defs><g id="Calque_2" data-name="Calque 2"><g id="Calque_1-2" data-name="Calque 1"><g id="Groupe_3" data-name="Groupe 3"><path id="Tracé_109" data-name="Tracé 109" class="cls-1" d="M33.18,9.77a12.16178,12.16178,0,0,0-.78-4.03A8.52594,8.52594,0,0,0,27.54.87,12.257,12.257,0,0,0,23.5.1C21.73.02,21.16,0,16.64,0S11.56.02,9.78.1A12.257,12.257,0,0,0,5.74.87,8.112,8.112,0,0,0,2.79,2.79,8.20565,8.20565,0,0,0,.87,5.74,12.4522,12.4522,0,0,0,.1,9.77C.02,11.56,0,12.11,0,16.64c0,4.51.02,5.08.1,6.85a12.58961,12.58961,0,0,0,.77,4.05A8.526,8.526,0,0,0,5.74,32.4a12,12,0,0,0,4.04.77c1.78.08,2.34.1,6.86.1s5.09-.02,6.86-.1a12,12,0,0,0,4.04-.77,8.25582,8.25582,0,0,0,2.94-1.92,8.07681,8.07681,0,0,0,1.92-2.94,12.29924,12.29924,0,0,0,.78-4.05c.08-1.77.09-2.34.09-6.85C33.27,12.105,33.26,11.56,33.18,9.77Zm-3,13.58a9.12319,9.12319,0,0,1-.57,3.1,5.17313,5.17313,0,0,1-1.24,1.91,4.97,4.97,0,0,1-1.92,1.24,8.92512,8.92512,0,0,1-3.09.58c-1.75.08-2.28.1-6.72.1s-4.97-.02-6.72-.1a8.982,8.982,0,0,1-3.09-.58,4.86205,4.86205,0,0,1-1.91-1.24,5.20008,5.20008,0,0,1-1.25-1.91,9.38367,9.38367,0,0,1-.57-3.1C3.02,21.6,3,21.08,3,16.64s.02-4.98.1-6.73a9.231,9.231,0,0,1,.57-3.08A5.07507,5.07507,0,0,1,4.92,4.91,5.2401,5.2401,0,0,1,6.83,3.66,9.11708,9.11708,0,0,1,9.92,3.1c1.75-.08,2.28-.1,6.72-.1s4.97.02,6.72.1a9.06109,9.06109,0,0,1,3.09.56,5.36524,5.36524,0,0,1,1.92,1.25,5.05344,5.05344,0,0,1,1.24,1.92,8.975,8.975,0,0,1,.57,3.08c.09,1.75.1,2.28.1,6.73S30.27,21.6,30.18,23.35Z"/><path id="Tracé_110" data-name="Tracé 110" class="cls-1" d="M27.52,7.76a2,2,0,1,1-2-2A2,2,0,0,1,27.52,7.76Z"/><path id="Tracé_111" data-name="Tracé 111" class="cls-1" d="M16.64,8.09a8.544,8.544,0,1,0,.012,0Zm0,14.09a5.545,5.545,0,1,1,5.55-5.54h0a5.54,5.54,0,0,1-5.54,5.54Z"/></g></g></g></svg>