<svg xmlns="http://www.w3.org/2000/svg" viewBox="0 0 27.89001 36.0358"><defs><style>.cls-1{fill:#fff;}</style></defs><g id="Calque_2" data-name="Calque 2"><g id="Calque_1-2" data-name="Calque 1"><path id="Tracé_112" data-name="Tracé 112" class="cls-1" d="M27.89,11.86c0,8.12-4.51,14.19-11.17,14.19a5.927,5.927,0,0,1-5.05-2.59s-1.21,4.77-1.46,5.69a22.169,22.169,0,0,1-3.74,6.78.277.277,0,0,1-.49-.12,22.951,22.951,0,0,1,.07-7.86c.39-1.69,2.66-11.28,2.66-11.28a8.0231,8.0231,0,0,1-.66-3.28c0-3.07,1.78-5.36,3.99-5.36,1.88,0,2.79,1.41,2.79,3.1,0,1.9-1.2,4.73-1.83,7.35a3.209,3.209,0,0,0,3.27,3.99c3.92,0,6.56-5.04,6.56-11,0-4.55-3.05-7.94-8.61-7.94A9.8,9.8,0,0,0,4.03708,12.9315q-.01014.25412-.00708.5085a6.014,6.014,0,0,0,1.36,4.07,1.006,1.006,0,0,1,.31,1.14c-.11.39-.34,1.31-.43,1.67a.709.709,0,0,1-1.03.52C1.34,19.65,0,16.49,0,12.93,0,7.05,4.95,0,14.79,0,22.69,0,27.89,5.72,27.89,11.86Z"/></g></g></svg>