<svg xmlns="http://www.w3.org/2000/svg" viewBox="0 0 242.35547 96.26758"><defs><style>.cls-1{fill:#fff;}.cls-2{fill:#1d1d1b;}</style></defs><g id="Calque_2" data-name="Calque 2"><g id="Calque_1-2" data-name="Calque 1"><polygon class="cls-1" points="2 25.222 2 71.046 41.685 93.958 81.37 71.046 81.37 25.222 41.685 2.31 2 25.222 2 25.222"/><polygon points="2 25.222 2 71.046 41.685 93.958 81.37 71.046 81.37 25.222 41.685 2.31 2 25.222 2 25.222"/><path class="cls-1" d="M41.68506,96.26758,0,72.20117V24.06738L41.68506,0,83.37012,24.06738V72.20117ZM4,69.89258,41.68506,91.64844,79.37012,69.89258V26.376L41.68506,4.61914,4,26.376Z"/><path class="cls-1" d="M92.86084,9.06649h4.71631l4.17578,11.52q.39624,1.11621.75635,2.28613.35889,1.16968.75586,2.32178h.144q.3955-1.15137.73779-2.32178.342-1.16969.73828-2.28613l4.06788-11.52h4.75195V32.61043h-3.852V21.84627q0-.82764.0542-1.7998.05346-.97192.126-1.96192.07178-.99023.17969-1.94433.10841-.95289.18018-1.78174h-.144l-1.9082,5.47217-3.85156,10.584h-2.48438l-3.88769-10.584-1.87207-5.47217h-.144q.07179.82837.16211,1.78174.08935.95435.17969,1.94433.08936.99024.144,1.96192.05421.97193.0542,1.7998V32.61043H92.86084Z"/><path class="cls-1" d="M118.78076,9.06649h4.71631l4.17578,11.52q.397,1.11621.75684,2.28613.35889,1.16968.75586,2.32178h.14355q.3955-1.15137.73828-2.32178.34131-1.16969.73828-2.28613l4.06739-11.52H139.625V32.61043h-3.85156V21.84627q0-.82764.05371-1.7998.0542-.97192.126-1.96192.07178-.99023.17968-1.94433.10841-.95289.17969-1.78174H136.169l-1.90821,5.47217-3.85156,10.584H127.9248l-3.88769-10.584L122.165,14.35848h-.14356q.07179.82837.16211,1.78174.08936.95435.17969,1.94433.08935.99024.14356,1.96192.0542.97193.05468,1.7998V32.61043h-3.78076Z"/><path class="cls-1" d="M144.70117,9.06649H148.877V32.61043h-4.17578Z"/><path class="cls-1" d="M92.93652,38.11629h2.27491a3.75248,3.75248,0,0,1,4.13378,4.21192,5.67218,5.67218,0,0,1-.27929,1.85888,3.56441,3.56441,0,0,1-.80615,1.34571,3.36348,3.36348,0,0,1-1.27393.8125,4.92154,4.92154,0,0,1-1.69629.273h-2.353Zm2.1709,7.27979a2.59161,2.59161,0,0,0,1.99561-.74756,3.31658,3.31658,0,0,0,.69531-2.32031,3.14883,3.14883,0,0,0-.70215-2.27491,2.66111,2.66111,0,0,0-1.98877-.71484h-.66308v6.05762Z"/><path class="cls-1" d="M103.66162,46.774a3.31759,3.31759,0,0,1-1.23535-.227,2.93522,2.93522,0,0,1-1.001-.65674,2.99851,2.99851,0,0,1-.66943-1.04639,3.85881,3.85881,0,0,1-.24023-1.41064,3.78886,3.78886,0,0,1,.24658-1.40381,3.2223,3.2223,0,0,1,.65674-1.05322,2.90794,2.90794,0,0,1,.94238-.66309,2.6954,2.6954,0,0,1,1.09228-.23389,2.77728,2.77728,0,0,1,1.14405.22119,2.233,2.233,0,0,1,.82519.624,2.74322,2.74322,0,0,1,.50049.96191,4.20187,4.20187,0,0,1,.169,1.22217,4.11874,4.11874,0,0,1-.01954.41553,2.62765,2.62765,0,0,1-.04541.312h-4.05615a2.06205,2.06205,0,0,0,.60449,1.31982,1.81631,1.81631,0,0,0,1.28077.46143,2.34809,2.34809,0,0,0,.77343-.12354,3.39105,3.39105,0,0,0,.7085-.34472l.50683.936a4.566,4.566,0,0,1-1.01367.49414A3.5308,3.5308,0,0,1,103.66162,46.774Zm1.13086-3.95166a1.89612,1.89612,0,0,0-.31836-1.16358,1.15057,1.15057,0,0,0-.98193-.42236,1.41649,1.41649,0,0,0-1.001.40283,1.91236,1.91236,0,0,0-.53271,1.18311Zm-2.106-4.394,1.91114-2.2622,1.03955.98828-2.21,2.01465Z"/><path class="cls-1" d="M107.52246,40.23543h1.23486l.104.67578h.05176a4.57721,4.57721,0,0,1,.897-.585,2.27231,2.27231,0,0,1,1.02734-.24707,2.37256,2.37256,0,0,1,1.05957.22754,2.203,2.203,0,0,1,.78614.65674,3.05781,3.05781,0,0,1,.49414,1.02686,4.93255,4.93255,0,0,1,.16894,1.33886,4.36637,4.36637,0,0,1-.22754,1.46241,3.31453,3.31453,0,0,1-.60449,1.0791,2.63311,2.63311,0,0,1-.87109.66943,2.36655,2.36655,0,0,1-1.02686.23389,2.06467,2.06467,0,0,1-.832-.18164,3.18872,3.18872,0,0,1-.80615-.52l.03906,1.06591v2.002h-1.49463Zm2.78174,5.30371a1.30131,1.30131,0,0,0,1.06592-.55224,2.6516,2.6516,0,0,0,.4292-1.64453,2.877,2.877,0,0,0-.3252-1.49512,1.1386,1.1386,0,0,0-1.05273-.5332,2.07542,2.07542,0,0,0-1.4043.71533v2.977a2.24243,2.24243,0,0,0,.67627.416A1.81247,1.81247,0,0,0,110.3042,45.53914Z"/><path class="cls-1" d="M116.24414,46.774a1.85891,1.85891,0,0,1-1.36523-.51319,1.8232,1.8232,0,0,1-.52-1.35839,1.86875,1.86875,0,0,1,.21484-.90381,1.8444,1.8444,0,0,1,.67578-.68213,4.49405,4.49405,0,0,1,1.16992-.48145,10.7143,10.7143,0,0,1,1.69678-.29883,2.41794,2.41794,0,0,0-.07178-.47461,1.097,1.097,0,0,0-.19482-.40283.90557.90557,0,0,0-.35742-.27295,1.3546,1.3546,0,0,0-.5459-.09765,2.421,2.421,0,0,0-.9165.18213,6.18234,6.18234,0,0,0-.87793.44189l-.5459-1.001a6.39754,6.39754,0,0,1,1.19629-.585,4.06457,4.06457,0,0,1,1.42968-.24707,2.19688,2.19688,0,0,1,1.7876.7085,3.12054,3.12054,0,0,1,.59131,2.04736v3.78321H118.376l-.104-.70215h-.05176a4.699,4.699,0,0,1-.9165.61133A2.31249,2.31249,0,0,1,116.24414,46.774Zm.481-1.16992a1.40543,1.40543,0,0,0,.70849-.18165,3.82521,3.82521,0,0,0,.68262-.52V43.47225a6.81668,6.81668,0,0,0-1.09228.208,3.17009,3.17009,0,0,0-.71485.29248,1.04314,1.04314,0,0,0-.39013.3706.8864.8864,0,0,0-.1167.4419.72871.72871,0,0,0,.25976.624A1.07612,1.07612,0,0,0,116.7251,45.60409Z"/><path class="cls-1" d="M121.40527,40.23543h1.23536l.10351,1.13086h.05176a2.688,2.688,0,0,1,.81933-.95556,1.8006,1.8006,0,0,1,1.71582-.20166l-.25976,1.30029a2.79138,2.79138,0,0,0-.31152-.07813,2.03862,2.03862,0,0,0-.35157-.02588,1.39143,1.39143,0,0,0-.793.29249,2.25745,2.25745,0,0,0-.71484,1.0205v3.89991h-1.49512Z"/><path class="cls-1" d="M128.50293,46.774a2.332,2.332,0,0,1-.94238-.16895,1.59151,1.59151,0,0,1-.624-.47412,1.97566,1.97566,0,0,1-.35156-.728,3.74623,3.74623,0,0,1-.11035-.94287v-3.042h-.91016V40.30037l.98828-.06494.18262-1.74218h1.24805v1.74218h1.625v1.18262h-1.625V44.46q0,1.11841.89648,1.11817a1.68323,1.68323,0,0,0,.66309-.14307l.25976,1.105a4.91607,4.91607,0,0,1-.59082.1626A3.38843,3.38843,0,0,1,128.50293,46.774Z"/><path class="cls-1" d="M133.67578,46.774a3.31429,3.31429,0,0,1-1.23437-.227,2.93983,2.93983,0,0,1-1.001-.65674,3.00431,3.00431,0,0,1-.66895-1.04639,3.84877,3.84877,0,0,1-.24023-1.41064,3.79891,3.79891,0,0,1,.24609-1.40381,3.2233,3.2233,0,0,1,.65723-1.05322,2.90283,2.90283,0,0,1,.94238-.66309,2.69315,2.69315,0,0,1,1.0918-.23389,2.77963,2.77963,0,0,1,1.14453.22119,2.23749,2.23749,0,0,1,.82422.624,2.762,2.762,0,0,1,.50195.96191,4.25255,4.25255,0,0,1,.168,1.22217,3.98265,3.98265,0,0,1-.01953.41553,2.86783,2.86783,0,0,1-.04492.312h-4.05664a2.06438,2.06438,0,0,0,.60449,1.31982,1.81587,1.81587,0,0,0,1.28027.46143,2.3481,2.3481,0,0,0,.77344-.12354,3.40624,3.40624,0,0,0,.709-.34472l.50781.936a4.60259,4.60259,0,0,1-1.01563.49414A3.51825,3.51825,0,0,1,133.67578,46.774Zm1.13086-3.95166a1.88974,1.88974,0,0,0-.31836-1.16358,1.14649,1.14649,0,0,0-.98047-.42236,1.4173,1.4173,0,0,0-1.001.40283,1.91,1.91,0,0,0-.53321,1.18311Z"/><path class="cls-1" d="M137.53809,40.23543h1.23437l.10449.87061h.05176a4.50155,4.50155,0,0,1,.87793-.728,1.97021,1.97021,0,0,1,1.07227-.29883,1.90793,1.90793,0,0,1,1.124.29883,1.85739,1.85739,0,0,1,.64355.84522,5.16872,5.16872,0,0,1,.94922-.81885,1.9648,1.9648,0,0,1,1.10547-.3252,1.73174,1.73174,0,0,1,1.49512.65674,3.14341,3.14341,0,0,1,.48047,1.87842v4.00391H145.169V42.80916a1.94313,1.94313,0,0,0-.24024-1.11767.85482.85482,0,0,0-.73437-.3252,2.0119,2.0119,0,0,0-1.33985.793v4.459h-1.49414V42.80916a1.942,1.942,0,0,0-.24121-1.11767.86743.86743,0,0,0-.74707-.3252,2.01024,2.01024,0,0,0-1.33887.793v4.459h-1.49511Z"/><path class="cls-1" d="M151.22559,46.774a3.31431,3.31431,0,0,1-1.23438-.227,2.92128,2.92128,0,0,1-1.001-.65674,2.99261,2.99261,0,0,1-.66992-1.04639,3.86932,3.86932,0,0,1-.24023-1.41064,3.77887,3.77887,0,0,1,.24707-1.40381,3.2051,3.2051,0,0,1,.65625-1.05322,2.91328,2.91328,0,0,1,.94238-.66309,2.69658,2.69658,0,0,1,1.0918-.23389,2.77963,2.77963,0,0,1,1.14453.22119,2.233,2.233,0,0,1,.82519.624,2.76014,2.76014,0,0,1,.501.96191,4.21822,4.21822,0,0,1,.16895,1.22217c0,.14746-.00684.28564-.01953.41553a2.8335,2.8335,0,0,1-.0459.312h-4.05567a2.05959,2.05959,0,0,0,.6045,1.31982,1.81257,1.81257,0,0,0,1.28027.46143,2.34819,2.34819,0,0,0,.77344-.12354,3.40593,3.40593,0,0,0,.709-.34472l.50684.936a4.574,4.574,0,0,1-1.01465.49414A3.52667,3.52667,0,0,1,151.22559,46.774Zm1.13086-3.95166a1.88974,1.88974,0,0,0-.31836-1.16358,1.14843,1.14843,0,0,0-.98145-.42236,1.41734,1.41734,0,0,0-1.001.40283,1.91008,1.91008,0,0,0-.5332,1.18311Z"/><path class="cls-1" d="M155.08789,40.23543h1.23438l.10449.85791h.05176a5.07353,5.07353,0,0,1,.92968-.71533,2.22686,2.22686,0,0,1,1.16309-.29883,1.70948,1.70948,0,0,1,1.49512.65674,3.2031,3.2031,0,0,1,.46875,1.87842v4.00391H159.04V42.80916a1.9824,1.9824,0,0,0-.23438-1.11767.88067.88067,0,0,0-.7666-.3252,1.34683,1.34683,0,0,0-.73535.20166,4.67849,4.67849,0,0,0-.7207.59131v4.459h-1.49512Z"/><path class="cls-1" d="M164.61621,46.774a2.32873,2.32873,0,0,1-.94238-.16895,1.59151,1.59151,0,0,1-.624-.47412,1.9605,1.9605,0,0,1-.35156-.728,3.74623,3.74623,0,0,1-.11035-.94287v-3.042h-.91016V40.30037l.98829-.06494.18164-1.74218h1.248v1.74218h1.625v1.18262h-1.625V44.46q0,1.11841.89746,1.11817a1.59857,1.59857,0,0,0,.34473-.03907,1.62275,1.62275,0,0,0,.31836-.104l.25977,1.105a4.93528,4.93528,0,0,1-.5918.1626A3.37229,3.37229,0,0,1,164.61621,46.774Z"/><path class="cls-1" d="M169.79,38.11629h1.70312l1.50782,4.16016q.14355.40283.27343.82519.12891.42261.27247.83838h.05175q.14356-.41527.2666-.83838.12306-.42187.26661-.82519l1.46875-4.16016h1.71679v8.502h-1.3916V42.731q0-.29883.01953-.6499.019-.35083.0459-.7085c.0166-.23828.03906-.47217.06445-.70166q.03956-.345.06543-.64355h-.05175l-.68946,1.97558-1.39062,3.82227h-.89746L171.6875,42.003l-.67578-1.97558H170.96q.02637.29881.05859.64355.03224.34423.06446.70166.03222.35816.05273.7085.019.35082.01953.6499v3.88721H169.79Z"/><path class="cls-1" d="M182.07422,46.774a3.31431,3.31431,0,0,1-1.23438-.227,2.92114,2.92114,0,0,1-1.001-.65674,2.99233,2.99233,0,0,1-.66992-1.04639,3.8691,3.8691,0,0,1-.24024-1.41064,3.77887,3.77887,0,0,1,.24707-1.40381,3.2051,3.2051,0,0,1,.65625-1.05322,2.91338,2.91338,0,0,1,.94238-.66309,2.69658,2.69658,0,0,1,1.0918-.23389,2.77963,2.77963,0,0,1,1.14453.22119,2.23311,2.23311,0,0,1,.8252.624,2.76029,2.76029,0,0,1,.501.96191,4.21822,4.21822,0,0,1,.169,1.22217c0,.14746-.00684.28564-.01953.41553a2.83108,2.83108,0,0,1-.0459.312h-4.05566a2.05953,2.05953,0,0,0,.60449,1.31982,1.81259,1.81259,0,0,0,1.28027.46143,2.3481,2.3481,0,0,0,.77344-.12354,3.40593,3.40593,0,0,0,.709-.34472l.50684.936a4.57374,4.57374,0,0,1-1.01465.49414A3.52662,3.52662,0,0,1,182.07422,46.774Zm1.13086-3.95166a1.88974,1.88974,0,0,0-.31836-1.16358,1.14842,1.14842,0,0,0-.98145-.42236,1.4173,1.4173,0,0,0-1.001.40283,1.91,1.91,0,0,0-.53321,1.18311Zm-2.10547-4.394,1.91113-2.2622,1.04.98828-2.21,2.01465Z"/><path class="cls-1" d="M188.001,46.774a2.32881,2.32881,0,0,1-.94239-.16895,1.59148,1.59148,0,0,1-.624-.47412,1.9605,1.9605,0,0,1-.35156-.728,3.74623,3.74623,0,0,1-.11035-.94287v-3.042h-.91016V40.30037l.98828-.06494.18164-1.74218h1.24805v1.74218h1.625v1.18262h-1.625V44.46q0,1.11841.89746,1.11817a1.59864,1.59864,0,0,0,.34473-.03907,1.623,1.623,0,0,0,.31836-.104l.25976,1.105a4.93528,4.93528,0,0,1-.5918.1626A3.37226,3.37226,0,0,1,188.001,46.774Z"/><path class="cls-1" d="M191.19922,39.11727a.95413.95413,0,0,1-.66309-.23389.78233.78233,0,0,1-.25976-.61133.80113.80113,0,0,1,.25976-.61718,1.03359,1.03359,0,0,1,1.32617,0,.80447.80447,0,0,1,.25977.61718.78555.78555,0,0,1-.25977.61133A.9558.9558,0,0,1,191.19922,39.11727Zm-.75391,1.11816h1.49512v6.38282h-1.49512Z"/><path class="cls-1" d="M196.58008,46.774a3.31431,3.31431,0,0,1-1.23438-.227,2.92114,2.92114,0,0,1-1.001-.65674,2.99249,2.99249,0,0,1-.66993-1.04639,3.86932,3.86932,0,0,1-.24023-1.41064,3.77887,3.77887,0,0,1,.24707-1.40381,3.2051,3.2051,0,0,1,.65625-1.05322,2.91328,2.91328,0,0,1,.94238-.66309,2.69658,2.69658,0,0,1,1.0918-.23389,2.77963,2.77963,0,0,1,1.14453.22119,2.23311,2.23311,0,0,1,.8252.624,2.76029,2.76029,0,0,1,.501.96191,4.21822,4.21822,0,0,1,.16895,1.22217c0,.14746-.00684.28564-.01953.41553a2.83108,2.83108,0,0,1-.0459.312h-4.05566a2.05953,2.05953,0,0,0,.60449,1.31982,1.81259,1.81259,0,0,0,1.28027.46143,2.34815,2.34815,0,0,0,.77344-.12354,3.40593,3.40593,0,0,0,.709-.34472l.50684.936a4.57374,4.57374,0,0,1-1.01465.49414A3.52667,3.52667,0,0,1,196.58008,46.774Zm1.13086-3.95166a1.88974,1.88974,0,0,0-.31836-1.16358,1.14842,1.14842,0,0,0-.98145-.42236,1.4173,1.4173,0,0,0-1.001.40283,1.91,1.91,0,0,0-.53321,1.18311Z"/><path class="cls-1" d="M200.44141,40.23543h1.23437l.10449,1.13086h.05176a2.6785,2.6785,0,0,1,.81934-.95556,1.8006,1.8006,0,0,1,1.71582-.20166l-.25977,1.30029a2.8033,2.8033,0,0,0-.3125-.07813,2.01835,2.01835,0,0,0-.35058-.02588,1.389,1.389,0,0,0-.793.29249,2.25738,2.25738,0,0,0-.71485,1.0205v3.89991h-1.49511Z"/><path class="cls-1" d="M207.07129,46.774a3.5367,3.5367,0,0,1-1.30664-.25342,4.2243,4.2243,0,0,1-1.11231-.63037l.70215-.96192a4.05388,4.05388,0,0,0,.85156.52637,2.22027,2.22027,0,0,0,.917.18848,1.14874,1.14874,0,0,0,.7666-.21436.6973.6973,0,0,0,.24707-.55273.54219.54219,0,0,0-.11719-.34424,1.12821,1.12821,0,0,0-.31152-.2666,2.96217,2.96217,0,0,0-.44238-.21436q-.2461-.09741-.49415-.20166-.312-.11718-.63671-.273a2.54972,2.54972,0,0,1-.57813-.377,1.90176,1.90176,0,0,1-.416-.51367,1.409,1.409,0,0,1-.16309-.69531,1.728,1.728,0,0,1,.624-1.37793,2.536,2.536,0,0,1,1.70313-.53321,2.9497,2.9497,0,0,1,1.19629.23389,4.45811,4.45811,0,0,1,.92285.5332l-.68945.91016a3.54609,3.54609,0,0,0-.68165-.39649,1.79991,1.79991,0,0,0-.72168-.1499,1.048,1.048,0,0,0-.709.20166.64271.64271,0,0,0-.22754.50049.5123.5123,0,0,0,.11035.33154,1.04065,1.04065,0,0,0,.293.24073,2.9188,2.9188,0,0,0,.42285.19482c.16016.06055.32618.12158.5.18213.2168.07764.4336.167.65039.26611a2.71586,2.71586,0,0,1,.59082.37061,1.69228,1.69228,0,0,1,.42969.53955,1.65479,1.65479,0,0,1,.16211.76074,1.84526,1.84526,0,0,1-.16211.77344,1.78869,1.78869,0,0,1-.47461.624,2.30643,2.30643,0,0,1-.78027.42237A3.36021,3.36021,0,0,1,207.07129,46.774Z"/><path class="cls-1" d="M95.04248,60.76717a2.33461,2.33461,0,0,1-1.91748-.87793,3.8228,3.8228,0,0,1-.7085-2.46289,4.07345,4.07345,0,0,1,.22754-1.4043,3.256,3.256,0,0,1,.6045-1.05273,2.68739,2.68739,0,0,1,.86425-.66309,2.30152,2.30152,0,0,1,1.00782-.23437,2.05835,2.05835,0,0,1,.92285.18848,3.70327,3.70327,0,0,1,.7539.51367l-.05175-1.02735V51.43319h1.49462v9.17773H97.00537l-.104-.68945h-.05176a3.39034,3.39034,0,0,1-.81934.59863A2.09375,2.09375,0,0,1,95.04248,60.76717Zm.36377-1.23535a1.7845,1.7845,0,0,0,1.33936-.71484V55.83944a2.09942,2.09942,0,0,0-.65674-.415,1.85117,1.85117,0,0,0-.64356-.11719,1.29338,1.29338,0,0,0-1.05273.5459,2.47489,2.47489,0,0,0-.4292,1.55957,2.792,2.792,0,0,0,.3706,1.58008A1.22086,1.22086,0,0,0,95.40625,59.53182Z"/><path class="cls-1" d="M102.03662,60.76717a1.70736,1.70736,0,0,1-1.49512-.65723,3.20518,3.20518,0,0,1-.46826-1.87793v-4.0039h1.49512V58.0367a1.98791,1.98791,0,0,0,.23389,1.11817.86629.86629,0,0,0,.75439.32519,1.31371,1.31371,0,0,0,.73438-.208,3.01028,3.01028,0,0,0,.68261-.67578V54.22811h1.49463v6.38281h-1.22168l-.11719-.93555h-.03906a3.75777,3.75777,0,0,1-.90332.793A2.158,2.158,0,0,1,102.03662,60.76717Z"/><path class="cls-1" d="M110.09619,52.109h1.70313l1.50781,4.16015q.14281.40284.27295.8252.12963.42334.273.83887h.05224q.14283-.416.26612-.83887.12378-.42187.2666-.8252l1.46924-4.16015h1.71582v8.502h-1.39112V56.7242q0-.29883.01953-.65039c.01319-.23437.02833-.46972.04542-.708q.02635-.35742.06542-.70214.03882-.34425.06495-.64356H116.375l-.689,1.97559L114.29492,59.818h-.897l-1.40381-3.82226-.67627-1.97559h-.05176q.02563.29883.0586.64356.03222.34423.06494.70214c.02148.23829.03906.47364.05176.708q.01977.35157.01953.65039v3.88672h-1.36475Z"/><path class="cls-1" d="M121.54932,60.76717a1.70735,1.70735,0,0,1-1.49512-.65723,3.20518,3.20518,0,0,1-.46826-1.87793v-4.0039h1.49511V58.0367a1.988,1.988,0,0,0,.23389,1.11817.86631.86631,0,0,0,.7544.32519,1.3114,1.3114,0,0,0,.73437-.208,2.99082,2.99082,0,0,0,.68262-.67578V54.22811h1.49512v6.38281h-1.22168l-.11719-.93555h-.03906a3.76742,3.76742,0,0,1-.90332.793A2.15985,2.15985,0,0,1,121.54932,60.76717Z"/><path class="cls-1" d="M128.335,60.76717a1.26369,1.26369,0,0,1-1.13086-.48144,2.31391,2.31391,0,0,1-.32422-1.3125v-7.54H128.374v7.61816a.55417.55417,0,0,0,.1045.38281.30024.30024,0,0,0,.2207.11035h.09766a.53317.53317,0,0,0,.13671-.02539l.19532,1.11817A2.03665,2.03665,0,0,1,128.335,60.76717Z"/><path class="cls-1" d="M132.65137,60.76717a2.3404,2.3404,0,0,1-.94239-.16894,1.60661,1.60661,0,0,1-.624-.47461,1.97786,1.97786,0,0,1-.35156-.72852,3.74229,3.74229,0,0,1-.11035-.94238v-3.042h-.91016V54.29256l.98828-.06445.18262-1.74219h1.24805v1.74219h1.624v1.18262h-1.624v3.042q0,1.11914.89648,1.11816a1.56838,1.56838,0,0,0,.34473-.03906,1.69079,1.69079,0,0,0,.31836-.10352l.25976,1.1045a5.02648,5.02648,0,0,1-.59179.16308A3.40466,3.40466,0,0,1,132.65137,60.76717Z"/><path class="cls-1" d="M135.84961,53.10994a.95218.95218,0,0,1-.66309-.23437.77961.77961,0,0,1-.25976-.61035.80328.80328,0,0,1,.25976-.61817,1.03526,1.03526,0,0,1,1.32618,0,.80663.80663,0,0,1,.25976.61817.78281.78281,0,0,1-.25976.61035A.95386.95386,0,0,1,135.84961,53.10994Zm-.75391,1.11817h1.49512v6.38281H135.0957Z"/><path class="cls-1" d="M138.501,54.22811h1.23437l.10449.87109h.05176a4.47025,4.47025,0,0,1,.87793-.72851,1.97021,1.97021,0,0,1,1.07227-.29883,1.90793,1.90793,0,0,1,1.124.29883,1.85373,1.85373,0,0,1,.64356.8457,5.13482,5.13482,0,0,1,.94921-.81934,1.96489,1.96489,0,0,1,1.10547-.32519,1.73145,1.73145,0,0,1,1.49512.65625,3.14706,3.14706,0,0,1,.48047,1.8789v4.00391h-1.50781V56.80233a1.94394,1.94394,0,0,0-.24024-1.11817.85484.85484,0,0,0-.73437-.32519,2.0119,2.0119,0,0,0-1.33985.793v4.459h-1.49414V56.80233a1.94284,1.94284,0,0,0-.24121-1.11817.86744.86744,0,0,0-.74707-.32519,2.01024,2.01024,0,0,0-1.33887.793v4.459H138.501Z"/><path class="cls-1" d="M152.18945,60.76717a3.31431,3.31431,0,0,1-1.23437-.22754,2.92688,2.92688,0,0,1-1.001-.65625,2.99019,2.99019,0,0,1-.66992-1.04687,3.8665,3.8665,0,0,1-.24023-1.41016,3.77972,3.77972,0,0,1,.24707-1.4043,3.19281,3.19281,0,0,1,.65625-1.05273,2.89862,2.89862,0,0,1,.94238-.66309,2.68908,2.68908,0,0,1,1.0918-.23437,2.79566,2.79566,0,0,1,1.14453.2207,2.23288,2.23288,0,0,1,.82519.624,2.77317,2.77317,0,0,1,.501.96191,4.22432,4.22432,0,0,1,.16894,1.22266c0,.14746-.00683.28613-.01953.416a2.85589,2.85589,0,0,1-.0459.31152H150.5a2.05833,2.05833,0,0,0,.60449,1.31934,1.80862,1.80862,0,0,0,1.28028.46191,2.36089,2.36089,0,0,0,.77343-.123,3.48137,3.48137,0,0,0,.709-.34473l.50683.93555a4.59542,4.59542,0,0,1-1.01464.49414A3.52731,3.52731,0,0,1,152.18945,60.76717Zm1.13086-3.95215A1.89225,1.89225,0,0,0,153.002,55.651a1.1494,1.1494,0,0,0-.98144-.42187,1.41777,1.41777,0,0,0-1.001.40332,1.9073,1.9073,0,0,0-.5332,1.18261Zm-2.10547-4.39453,1.91114-2.26172,1.04.98828-2.21,2.01465Z"/><path class="cls-1" d="M158.28613,60.76717a2.335,2.335,0,0,1-1.917-.87793,3.82285,3.82285,0,0,1-.709-2.46289,4.08487,4.08487,0,0,1,.22754-1.4043,3.28279,3.28279,0,0,1,.60449-1.05273,2.69626,2.69626,0,0,1,.86523-.66309,2.29424,2.29424,0,0,1,1.00684-.23437,2.05544,2.05544,0,0,1,.92285.18848,3.70833,3.70833,0,0,1,.75488.51367l-.05273-1.02735V51.43319h1.49512v9.17773H160.25l-.10449-.68945h-.05176a3.38081,3.38081,0,0,1-.81934.59863A2.09423,2.09423,0,0,1,158.28613,60.76717Zm.36426-1.23535a1.78361,1.78361,0,0,0,1.33887-.71484V55.83944a2.10325,2.10325,0,0,0-.65625-.415,1.85316,1.85316,0,0,0-.64356-.11719,1.294,1.294,0,0,0-1.05273.5459,2.4749,2.4749,0,0,0-.42871,1.55957,2.79221,2.79221,0,0,0,.37012,1.58008A1.22084,1.22084,0,0,0,158.65039,59.53182Z"/><path class="cls-1" d="M164.13672,53.10994a.95216.95216,0,0,1-.66309-.23437.77958.77958,0,0,1-.25976-.61035.80325.80325,0,0,1,.25976-.61817,1.03524,1.03524,0,0,1,1.32617,0,.8066.8066,0,0,1,.25977.61817.78278.78278,0,0,1-.25977.61035A.95382.95382,0,0,1,164.13672,53.10994Zm-.75391,1.11817h1.49512v6.38281h-1.49512Z"/><path class="cls-1" d="M168.33594,60.76717a1.85733,1.85733,0,0,1-1.36524-.51367,1.82364,1.82364,0,0,1-.51953-1.3584,1.87056,1.87056,0,0,1,.21387-.90332,1.8449,1.8449,0,0,1,.67676-.68262,4.47248,4.47248,0,0,1,1.16992-.48144,10.68692,10.68692,0,0,1,1.69629-.29883,2.4296,2.4296,0,0,0-.07129-.47461,1.10006,1.10006,0,0,0-.19531-.40332.90541.90541,0,0,0-.35743-.27246,1.34783,1.34783,0,0,0-.54589-.09766,2.42131,2.42131,0,0,0-.917.18164,6.307,6.307,0,0,0-.877.44239l-.5459-1.001a6.38766,6.38766,0,0,1,1.19531-.585,4.08128,4.08128,0,0,1,1.43067-.24707,2.19527,2.19527,0,0,1,1.78711.709,3.11368,3.11368,0,0,1,.5918,2.04688v3.7832h-1.23536l-.10351-.70215h-.05274a4.68047,4.68047,0,0,1-.916.61133A2.32058,2.32058,0,0,1,168.33594,60.76717Zm.48047-1.16992a1.39686,1.39686,0,0,0,.709-.18262,3.80886,3.80886,0,0,0,.68262-.51953V57.46444a6.9654,6.9654,0,0,0-1.0918.208,3.17916,3.17916,0,0,0-.71582.293,1.052,1.052,0,0,0-.38965.37012.88744.88744,0,0,0-.11719.44238.72794.72794,0,0,0,.26075.624A1.07232,1.07232,0,0,0,168.81641,59.59725Z"/><path class="cls-1" d="M182.85645,60.76717a6.00679,6.00679,0,0,1-1.01368-.34473,7.78807,7.78807,0,0,1-1.05371-.56543,4.1641,4.1641,0,0,1-1.14355.66309,3.90567,3.90567,0,0,1-1.417.24707,3.228,3.228,0,0,1-1.1377-.18848,2.6439,2.6439,0,0,1-.85156-.50683,2.17159,2.17159,0,0,1-.53906-.75488,2.34052,2.34052,0,0,1-.18848-.94239,2.27016,2.27016,0,0,1,.12988-.793,2.401,2.401,0,0,1,.35742-.64355,3.38624,3.38624,0,0,1,.51953-.53223c.19532-.16113.40137-.31445.61817-.46191a5.5632,5.5632,0,0,1-.40332-.96192,3.096,3.096,0,0,1-.14258-.91015,2.25229,2.25229,0,0,1,.14941-.8252,1.91091,1.91091,0,0,1,.43555-.66992,2.17292,2.17292,0,0,1,.67578-.45508,2.20825,2.20825,0,0,1,.88379-.16894,1.86958,1.86958,0,0,1,1.37207.49414,1.76355,1.76355,0,0,1,.5,1.31348,1.85875,1.85875,0,0,1-.15625.7666,2.45405,2.45405,0,0,1-.416.64355,4.51855,4.51855,0,0,1-.59082.55274q-.33252.25927-.68262.50683a8.76023,8.76023,0,0,0,.89062,1.0332,10.21744,10.21744,0,0,0,1.0459.917,6.21161,6.21161,0,0,0,.624-1.03418,7.12606,7.12606,0,0,0,.45507-1.22852h1.37793a9.53239,9.53239,0,0,1-.59765,1.54688,8.97473,8.97473,0,0,1-.8584,1.40429,6.67746,6.67746,0,0,0,.80664.43555,3.27533,3.27533,0,0,0,.72754.24023Zm-5.915-2.4834a1.21525,1.21525,0,0,0,.416.96192,1.53776,1.53776,0,0,0,1.05274.36425,1.884,1.884,0,0,0,.69629-.13671,3.08383,3.08383,0,0,0,.66894-.37012,13.24179,13.24179,0,0,1-1.085-1.02051,10.10566,10.10566,0,0,1-.92969-1.125,3.25784,3.25784,0,0,0-.59179.61816A1.191,1.191,0,0,0,176.94141,58.28377Zm.89746-4.22461a2.11621,2.11621,0,0,0,.09082.6045,4.80194,4.80194,0,0,0,.24707.64355,5.64962,5.64962,0,0,0,.89648-.68945,1.12893,1.12893,0,0,0,.36426-.84473,1.0052,1.0052,0,0,0-.15625-.57227.59089.59089,0,0,0-.5332-.23339.82036.82036,0,0,0-.65625.29882A1.18514,1.18514,0,0,0,177.83887,54.05916Z"/><path class="cls-1" d="M189.23926,60.76717a2.33493,2.33493,0,0,1-1.917-.87793,3.82285,3.82285,0,0,1-.709-2.46289,4.08487,4.08487,0,0,1,.22754-1.4043,3.283,3.283,0,0,1,.60449-1.05273,2.6963,2.6963,0,0,1,.86524-.66309,2.2942,2.2942,0,0,1,1.00683-.23437,2.05541,2.05541,0,0,1,.92285.18848,3.70839,3.70839,0,0,1,.75489.51367l-.05274-1.02735V51.43319h1.49512v9.17773h-1.23437l-.1045-.68945h-.05175a3.381,3.381,0,0,1-.81934.59863A2.09423,2.09423,0,0,1,189.23926,60.76717Zm.36426-1.23535a1.78357,1.78357,0,0,0,1.33886-.71484V55.83944a2.103,2.103,0,0,0-.65625-.415,1.85311,1.85311,0,0,0-.64355-.11719,1.294,1.294,0,0,0-1.05274.5459,2.4749,2.4749,0,0,0-.42871,1.55957,2.79229,2.79229,0,0,0,.37012,1.58008A1.22084,1.22084,0,0,0,189.60352,59.53182Z"/><path class="cls-1" d="M194.25684,54.86483a2.51567,2.51567,0,0,0,.8125-.68262,1.59676,1.59676,0,0,0,.2666-.95508.39626.39626,0,0,1-.11719.0127.88538.88538,0,0,1-.5918-.21485.73164.73164,0,0,1-.25293-.59082.90707.90707,0,0,1,.2334-.65722.815.815,0,0,1,.61133-.24024.877.877,0,0,1,.76074.377,1.83073,1.83073,0,0,1,.2666,1.0664,2.72106,2.72106,0,0,1-1.625,2.54785Z"/><path class="cls-1" d="M198.04,52.109h1.50781v8.502H198.04Z"/><path class="cls-1" d="M201.57617,54.22811h1.23438l.10449.85742h.05176a5.04929,5.04929,0,0,1,.92968-.71484,2.22686,2.22686,0,0,1,1.16309-.29883,1.7092,1.7092,0,0,1,1.49512.65625,3.20684,3.20684,0,0,1,.46875,1.8789v4.00391h-1.49512V56.80233a1.98324,1.98324,0,0,0-.23437-1.11817.8807.8807,0,0,0-.76661-.32519,1.3506,1.3506,0,0,0-.73535.20117,4.74351,4.74351,0,0,0-.7207.5918v4.459h-1.49512Z"/><path class="cls-1" d="M211.10547,60.76717a2.33708,2.33708,0,0,1-.94238-.16894,1.60657,1.60657,0,0,1-.624-.47461,1.96284,1.96284,0,0,1-.35156-.72852,3.74229,3.74229,0,0,1-.11035-.94238v-3.042H208.167V54.29256l.98828-.06445.18164-1.74219H210.585v1.74219h1.625v1.18262h-1.625v3.042q0,1.11914.89746,1.11816a1.56838,1.56838,0,0,0,.34473-.03906,1.69079,1.69079,0,0,0,.31836-.10352l.25976,1.1045a5.0254,5.0254,0,0,1-.59179.16308A3.40459,3.40459,0,0,1,211.10547,60.76717Z"/><path class="cls-1" d="M216.43457,60.76717a3.31423,3.31423,0,0,1-1.23437-.22754,2.92688,2.92688,0,0,1-1.001-.65625,2.99,2.99,0,0,1-.66992-1.04687,3.86649,3.86649,0,0,1-.24024-1.41016,3.77972,3.77972,0,0,1,.24707-1.4043,3.19314,3.19314,0,0,1,.65625-1.05273,2.89877,2.89877,0,0,1,.94239-.66309,2.689,2.689,0,0,1,1.09179-.23437,2.79559,2.79559,0,0,1,1.14453.2207,2.23284,2.23284,0,0,1,.8252.624,2.77351,2.77351,0,0,1,.501.96191,4.22432,4.22432,0,0,1,.16894,1.22266c0,.14746-.00683.28613-.01953.416a2.85589,2.85589,0,0,1-.0459.31152h-4.05566a2.05828,2.05828,0,0,0,.60449,1.31934,1.80861,1.80861,0,0,0,1.28027.46191,2.3609,2.3609,0,0,0,.77344-.123,3.481,3.481,0,0,0,.709-.34473l.50684.93555a4.59528,4.59528,0,0,1-1.01465.49414A3.52721,3.52721,0,0,1,216.43457,60.76717Zm1.13086-3.95215a1.89225,1.89225,0,0,0-.31836-1.16406,1.1494,1.1494,0,0,0-.98144-.42187,1.41777,1.41777,0,0,0-1.001.40332,1.9073,1.9073,0,0,0-.5332,1.18261Z"/><path class="cls-1" d="M220.2959,54.22811h1.23437l.1045,1.13086h.05175a2.6724,2.6724,0,0,1,.81934-.95508,1.79927,1.79927,0,0,1,1.71582-.20215l-.25977,1.29981a2.68214,2.68214,0,0,0-.3125-.07715,1.96593,1.96593,0,0,0-.35058-.02637,1.39521,1.39521,0,0,0-.793.292,2.26023,2.26023,0,0,0-.71484,1.02051v3.90039H220.2959Z"/><path class="cls-1" d="M225.14453,54.22811h1.23438l.10449.85742h.05176a5.04929,5.04929,0,0,1,.92968-.71484,2.22686,2.22686,0,0,1,1.16309-.29883,1.7092,1.7092,0,0,1,1.49512.65625,3.20684,3.20684,0,0,1,.46875,1.8789v4.00391h-1.49512V56.80233a1.98323,1.98323,0,0,0-.23438-1.11817.88068.88068,0,0,0-.7666-.32519,1.3506,1.3506,0,0,0-.73535.20117,4.74351,4.74351,0,0,0-.7207.5918v4.459h-1.49512Z"/><path class="cls-1" d="M235.1543,60.76717a3.31432,3.31432,0,0,1-1.23438-.22754,2.92684,2.92684,0,0,1-1.001-.65625,2.99007,2.99007,0,0,1-.66993-1.04687,3.86671,3.86671,0,0,1-.24023-1.41016,3.77972,3.77972,0,0,1,.24707-1.4043,3.19281,3.19281,0,0,1,.65625-1.05273,2.89873,2.89873,0,0,1,.94238-.66309,2.68908,2.68908,0,0,1,1.0918-.23437,2.79566,2.79566,0,0,1,1.14453.2207,2.233,2.233,0,0,1,.8252.624,2.77332,2.77332,0,0,1,.501.96191,4.224,4.224,0,0,1,.16895,1.22266c0,.14746-.00684.28613-.01953.416a2.85836,2.85836,0,0,1-.0459.31152h-4.05567a2.05829,2.05829,0,0,0,.6045,1.31934,1.80858,1.80858,0,0,0,1.28027.46191,2.361,2.361,0,0,0,.77344-.123,3.481,3.481,0,0,0,.709-.34473l.50684.93555a4.59528,4.59528,0,0,1-1.01465.49414A3.52725,3.52725,0,0,1,235.1543,60.76717Zm1.13086-3.95215a1.89225,1.89225,0,0,0-.31836-1.16406,1.14943,1.14943,0,0,0-.98145-.42187,1.41774,1.41774,0,0,0-1.001.40332,1.9073,1.9073,0,0,0-.53321,1.18261Z"/><path class="cls-1" d="M241.05566,60.76717a2.33711,2.33711,0,0,1-.94238-.16894,1.60647,1.60647,0,0,1-.624-.47461,1.96269,1.96269,0,0,1-.35156-.72852,3.74182,3.74182,0,0,1-.11036-.94238v-3.042h-.91015V54.29256l.98828-.06445.18164-1.74219h1.248v1.74219h1.625v1.18262h-1.625v3.042q0,1.11914.89746,1.11816a1.56829,1.56829,0,0,0,.34472-.03906,1.69056,1.69056,0,0,0,.31836-.10352l.25977,1.1045a5.02613,5.02613,0,0,1-.5918.16308A3.40452,3.40452,0,0,1,241.05566,60.76717Z"/><path class="cls-1" d="M93.11865,66.05135h.59766v8.56738h-.59766Z"/><path class="cls-1" d="M99.08545,74.775a3.55257,3.55257,0,0,1-1.06592-.16308,2.26009,2.26009,0,0,1-.92285-.5586,2.78976,2.78976,0,0,1-.64355-1.05957,4.92332,4.92332,0,0,1-.24073-1.66406V66.05135h.59815v5.21387a4.57026,4.57026,0,0,0,.18847,1.42285,2.52525,2.52525,0,0,0,.50049.91016,1.73475,1.73475,0,0,0,.72168.4873,2.59308,2.59308,0,0,0,.86426.14356,2.75008,2.75008,0,0,0,.89062-.14356,1.767,1.767,0,0,0,.74073-.4873,2.53971,2.53971,0,0,0,.51367-.91016,4.42548,4.42548,0,0,0,.19531-1.42285V66.05135h.5586v5.27832a4.81485,4.81485,0,0,1-.24708,1.66406,2.8606,2.8606,0,0,1-.6499,1.05957,2.26009,2.26009,0,0,1-.92285.5586A3.59579,3.59579,0,0,1,99.08545,74.775Z"/><path class="cls-1" d="M106.32617,66.57186h-2.73v-.52051h6.05811v.52051h-2.73v8.04687h-.59815Z"/><path class="cls-1" d="M113.89209,66.05135h2.314a3.7398,3.7398,0,0,1,2.0669.501,1.74981,1.74981,0,0,1,.76709,1.5791,2.04825,2.04825,0,0,1-.33838,1.17676,1.749,1.749,0,0,1-.98779.69531v.05176a2.39212,2.39212,0,0,1,1.33886.65722,1.91954,1.91954,0,0,1,.50733,1.41016,2.47224,2.47224,0,0,1-.22754,1.0918,2.11884,2.11884,0,0,1-.64356.78027,2.88354,2.88354,0,0,1-1.001.46777,5.07752,5.07752,0,0,1-1.313.15625h-2.48291Zm2.07959,3.77051a3.19577,3.19577,0,0,0,1.8916-.43555,1.40774,1.40774,0,0,0,.57861-1.18945,1.37531,1.37531,0,0,0-.61084-1.28027,3.50817,3.50817,0,0,0-1.79443-.3711h-1.54687v3.27637Zm.24707,4.30273a3.66474,3.66474,0,0,0,2.02148-.48047,1.67421,1.67421,0,0,0,.73487-1.50878,1.50457,1.50457,0,0,0-.71533-1.37793,3.907,3.907,0,0,0-2.041-.44141h-1.729v3.80859Z"/><path class="cls-1" d="M123.707,74.775a2.87559,2.87559,0,0,1-1.125-.22168,2.59077,2.59077,0,0,1-.9165-.64355,3.10427,3.10427,0,0,1-.61768-1.02637,3.88334,3.88334,0,0,1-.22754-1.37207,3.94,3.94,0,0,1,.22754-1.37793,3.1619,3.1619,0,0,1,.61133-1.0332,2.74219,2.74219,0,0,1,.87109-.65039,2.36344,2.36344,0,0,1,1.00782-.22754,2.1746,2.1746,0,0,1,1.75488.75488,3.20765,3.20765,0,0,1,.63672,2.13184v.2334a1.06459,1.06459,0,0,1-.02637.23437h-4.49756a3.61888,3.61888,0,0,0,.18164,1.08594,2.568,2.568,0,0,0,.4751.85742,2.1669,2.1669,0,0,0,.73438.55957,2.24293,2.24293,0,0,0,.96191.20117,2.65443,2.65443,0,0,0,.916-.14941,2.96833,2.96833,0,0,0,.76075-.41016l.23437.44239a7.73714,7.73714,0,0,1-.82519.416A2.87419,2.87419,0,0,1,123.707,74.775Zm1.67676-3.666a2.76583,2.76583,0,0,0-.49414-1.80078,1.652,1.652,0,0,0-1.33887-.5918,1.85708,1.85708,0,0,0-.7666.16309,2.03379,2.03379,0,0,0-.65723.47461,2.55116,2.55116,0,0,0-.48095.7539,3.31538,3.31538,0,0,0-.24024,1.001Z"/><path class="cls-1" d="M128.38672,74.775q-.76611,0-.7666-.98828V65.272h.57226v8.59278a.48359.48359,0,0,0,.07813.30566.24006.24006,0,0,0,.19433.09766h.085a.70061.70061,0,0,0,.14942-.02637l.10351.46777c-.06054.01758-.12109.03223-.18164.0459A1.17277,1.17277,0,0,1,128.38672,74.775Z"/><path class="cls-1" d="M133.0918,65.79159a1.40269,1.40269,0,0,0-.38282-.14258,1.8,1.8,0,0,0-.37011-.03907.81754.81754,0,0,0-.73438.36426,1.90384,1.90384,0,0,0-.24121,1.05274V68.3785h1.44336v.49414h-1.44336v5.74609H130.792V68.87264h-.8584v-.44238l.8584-.05176V66.98787a2.10637,2.10637,0,0,1,.40235-1.40429,1.42988,1.42988,0,0,1,1.14453-.46778,2.16911,2.16911,0,0,1,.90918.208Z"/><path class="cls-1" d="M136.39453,74.775a2.64588,2.64588,0,0,1-1.95605-.85839,3.08116,3.08116,0,0,1-.61133-1.02051,3.92139,3.92139,0,0,1-.22754-1.38477,4.03322,4.03322,0,0,1,.22754-1.39746,3.06464,3.06464,0,0,1,.61133-1.0332,2.64584,2.64584,0,0,1,1.95605-.8584,2.68757,2.68757,0,0,1,1.07324.22168,2.61833,2.61833,0,0,1,.89649.63672,3.08069,3.08069,0,0,1,.61133,1.0332,4.03345,4.03345,0,0,1,.22754,1.39746,3.92162,3.92162,0,0,1-.22754,1.38477,3.09765,3.09765,0,0,1-.61133,1.02051,2.60536,2.60536,0,0,1-.89649.63671A2.68757,2.68757,0,0,1,136.39453,74.775Zm0-.50683a1.95741,1.95741,0,0,0,.87793-.20215,2.05313,2.05313,0,0,0,.70215-.56543,2.77951,2.77951,0,0,0,.46094-.87109,3.49829,3.49829,0,0,0,.16894-1.11817,3.54413,3.54413,0,0,0-.16894-1.13086,2.86694,2.86694,0,0,0-.46094-.87695,2.03944,2.03944,0,0,0-.70215-.57227,1.96952,1.96952,0,0,0-.87793-.20117,1.92871,1.92871,0,0,0-.87109.20117,2.05321,2.05321,0,0,0-.69531.57227,2.86672,2.86672,0,0,0-.46094.87695,3.54413,3.54413,0,0,0-.16895,1.13086,3.49829,3.49829,0,0,0,.16895,1.11817,2.77931,2.77931,0,0,0,.46094.87109,2.067,2.067,0,0,0,.69531.56543A1.91692,1.91692,0,0,0,136.39453,74.26815Z"/><path class="cls-1" d="M141.07422,68.3785h.49414l.05176,1.15723h.03906a3.06008,3.06008,0,0,1,.75977-.94922,1.56224,1.56224,0,0,1,1.00781-.36426,1.81084,1.81084,0,0,1,.32519.02637,1.09438,1.09438,0,0,1,.29883.10449l-.12988.51953a1.26357,1.26357,0,0,0-.27344-.084,1.79192,1.79192,0,0,0-.29883-.01954,1.45612,1.45612,0,0,0-.877.35743,2.98749,2.98749,0,0,0-.82617,1.24121v4.251h-.57129Z"/><path class="cls-1" d="M146.89844,74.775a1.82724,1.82724,0,0,1-.75489-.13672,1.2005,1.2005,0,0,1-.48046-.38378,1.49628,1.49628,0,0,1-.25391-.59766,3.83189,3.83189,0,0,1-.07129-.7666V68.87264h-.97461v-.44238l.98731-.05176.07812-1.80664h.49414V68.3785h1.80762v.49414h-1.80762V72.942a2.91354,2.91354,0,0,0,.0459.53906,1.107,1.107,0,0,0,.16211.416.79119.79119,0,0,0,.31836.27344,1.2262,1.2262,0,0,0,.52637.09766,1.505,1.505,0,0,0,.39648-.0586,2.46449,2.46449,0,0,0,.38379-.13671l.15625.46777a4.32518,4.32518,0,0,1-.5459.16894A2.09833,2.09833,0,0,1,146.89844,74.775Z"/><path class="cls-1" d="M148.17383,71.12166h2.86035v.50684h-2.86035Z"/><path class="cls-1" d="M152.80176,66.05135h.8457l1.79395,5.03125q.16845.46875.33789.94238.16845.47462.33789.95606h.05176q.16845-.48193.32519-.95606.15528-.4746.3252-.94238l1.78027-5.03125h.8584v8.56738h-.585v-5.6289q0-.5332.02636-1.15039.02492-.61817.05176-1.16407h-.05176l-.66308,1.91114-1.84668,5.09668h-.51953l-1.85938-5.09668-.67578-1.91114h-.05176q.0249.54639.05176,1.16407.02637.61669.02637,1.15039v5.6289h-.55957Z"/><path class="cls-1" d="M164.18945,74.775a2.64588,2.64588,0,0,1-1.95605-.85839,3.08116,3.08116,0,0,1-.61133-1.02051,3.92139,3.92139,0,0,1-.22754-1.38477,4.03322,4.03322,0,0,1,.22754-1.39746,3.06464,3.06464,0,0,1,.61133-1.0332,2.64584,2.64584,0,0,1,1.95605-.8584,2.68765,2.68765,0,0,1,1.07325.22168,2.61839,2.61839,0,0,1,.89648.63672,3.08069,3.08069,0,0,1,.61133,1.0332,4.03322,4.03322,0,0,1,.22754,1.39746,3.92139,3.92139,0,0,1-.22754,1.38477,3.09765,3.09765,0,0,1-.61133,1.02051,2.60541,2.60541,0,0,1-.89648.63671A2.68765,2.68765,0,0,1,164.18945,74.775Zm0-.50683a1.95738,1.95738,0,0,0,.87793-.20215,2.05313,2.05313,0,0,0,.70215-.56543,2.77951,2.77951,0,0,0,.46094-.87109,3.49829,3.49829,0,0,0,.16894-1.11817,3.54413,3.54413,0,0,0-.16894-1.13086,2.86694,2.86694,0,0,0-.46094-.87695,2.03944,2.03944,0,0,0-.70215-.57227,1.96949,1.96949,0,0,0-.87793-.20117,1.92871,1.92871,0,0,0-.87109.20117,2.05321,2.05321,0,0,0-.69531.57227,2.86672,2.86672,0,0,0-.46094.87695,3.54413,3.54413,0,0,0-.169,1.13086,3.49829,3.49829,0,0,0,.169,1.11817,2.77931,2.77931,0,0,0,.46094.87109,2.067,2.067,0,0,0,.69531.56543A1.91692,1.91692,0,0,0,164.18945,74.26815Z"/><path class="cls-1" d="M168.87012,68.3785h.49414l.05176.96191h.03906a5.65176,5.65176,0,0,1,.9873-.79882,2.127,2.127,0,0,1,1.15723-.31934,1.69872,1.69872,0,0,1,1.43066.58594,2.93566,2.93566,0,0,1,.45411,1.80664v4.0039h-.57129V70.693a2.60048,2.60048,0,0,0-.332-1.47558,1.24422,1.24422,0,0,0-1.09863-.47461,1.842,1.842,0,0,0-1.01367.292,6.22814,6.22814,0,0,0-1.02734.87793v4.70605h-.57129Z"/><path class="cls-1" d="M177.48926,74.775a1.82716,1.82716,0,0,1-.75488-.13672,1.20047,1.20047,0,0,1-.48047-.38378A1.49628,1.49628,0,0,1,176,73.65682a3.83189,3.83189,0,0,1-.07129-.7666V68.87264h-.97461v-.44238l.98731-.05176.07812-1.80664h.49414V68.3785h1.80762v.49414h-1.80762V72.942a2.91354,2.91354,0,0,0,.0459.53906,1.107,1.107,0,0,0,.16211.416.79119.79119,0,0,0,.31836.27344,1.2262,1.2262,0,0,0,.52637.09766,1.505,1.505,0,0,0,.39648-.0586,2.46412,2.46412,0,0,0,.38379-.13671l.15625.46777a4.32518,4.32518,0,0,1-.5459.16894A2.09833,2.09833,0,0,1,177.48926,74.775Z"/><path class="cls-1" d="M182.28516,74.775a2.32874,2.32874,0,0,1-.94239-.21484,3.98988,3.98988,0,0,1-.92968-.57813h-.02539l-.06543.63672h-.48047V65.272h.57129v2.70411l-.02539,1.22168a5.807,5.807,0,0,1,1.02636-.68946,2.41294,2.41294,0,0,1,1.13184-.28613,2.15893,2.15893,0,0,1,1.87207.86523,3.885,3.885,0,0,1,.624,2.32032,4.22714,4.22714,0,0,1-.22168,1.417,3.19368,3.19368,0,0,1-.60449,1.05957,2.6075,2.6075,0,0,1-.88379.66308A2.50759,2.50759,0,0,1,182.28516,74.775Zm-.02539-.50683a1.87556,1.87556,0,0,0,.87109-.208,2.02324,2.02324,0,0,0,.68848-.585,2.90181,2.90181,0,0,0,.44824-.9043,3.92455,3.92455,0,0,0,.16308-1.16308,4.91734,4.91734,0,0,0-.11035-1.06641,2.57938,2.57938,0,0,0-.34472-.85156,1.648,1.648,0,0,0-.61133-.5586,1.913,1.913,0,0,0-.91016-.20117,2.09415,2.09415,0,0,0-.97461.2666,5.54979,5.54979,0,0,0-1.0664.75977v3.70508a3.47935,3.47935,0,0,0,1.001.624A2.42712,2.42712,0,0,0,182.25977,74.26815Z"/><path class="cls-1" d="M189.25293,74.775a2.87072,2.87072,0,0,1-1.124-.22168,2.589,2.589,0,0,1-.916-.64355,3.08082,3.08082,0,0,1-.61816-1.02637,3.88334,3.88334,0,0,1-.22754-1.37207,3.94,3.94,0,0,1,.22754-1.37793,3.15339,3.15339,0,0,1,.61132-1.0332,2.74754,2.74754,0,0,1,.8711-.65039,2.35909,2.35909,0,0,1,1.00683-.22754,2.17525,2.17525,0,0,1,1.75586.75488,3.21292,3.21292,0,0,1,.63672,2.13184v.2334a1.06517,1.06517,0,0,1-.02636.23437h-4.49805a3.61859,3.61859,0,0,0,.18262,1.08594,2.55825,2.55825,0,0,0,.47461.85742,2.16687,2.16687,0,0,0,.73437.55957,2.243,2.243,0,0,0,.96191.20117,2.65449,2.65449,0,0,0,.916-.14941,2.98439,2.98439,0,0,0,.76074-.41016l.23438.44239a7.75615,7.75615,0,0,1-.82617.416A2.86759,2.86759,0,0,1,189.25293,74.775Zm1.67773-3.666a2.76577,2.76577,0,0,0-.49414-1.80078,1.652,1.652,0,0,0-1.33886-.5918,1.86486,1.86486,0,0,0-.76758.16309,2.04038,2.04038,0,0,0-.65625.47461,2.53077,2.53077,0,0,0-.48047.7539,3.32963,3.32963,0,0,0-.24121,1.001Zm-2.53515-4.251,1.74219-2.041.4414.37695L188.707,67.15682Z"/><path class="cls-1" d="M193.93359,74.775q-.76757,0-.7666-.98828V65.272h.57129v8.59278a.48987.48987,0,0,0,.07813.30566.24319.24319,0,0,0,.19531.09766h.085a.71055.71055,0,0,0,.14941-.02637l.10352.46777c-.06055.01758-.12109.03223-.18164.0459A1.17288,1.17288,0,0,1,193.93359,74.775Z"/><path class="cls-1" d="M196.54688,66.87069a.51852.51852,0,0,1-.3711-.14258.483.483,0,0,1-.14941-.36426.493.493,0,0,1,.14941-.38379.57066.57066,0,0,1,.74121,0,.49305.49305,0,0,1,.14942.38379.483.483,0,0,1-.14942.36426A.51618.51618,0,0,1,196.54688,66.87069Zm-.29883,1.50781h.57129v6.24023h-.57129Z"/><path class="cls-1" d="M200.58887,74.775a2.2833,2.2833,0,0,1-.70117-.10449,1.659,1.659,0,0,1-.57227-.31152,1.43176,1.43176,0,0,1-.38965-.53321,1.88734,1.88734,0,0,1-.14355-.7666,1.71592,1.71592,0,0,1,.96875-1.58007,8.5808,8.5808,0,0,1,3.06152-.77344,4.97542,4.97542,0,0,0-.05176-.708,1.70624,1.70624,0,0,0-.22168-.6377,1.35219,1.35219,0,0,0-.45508-.45507,1.43349,1.43349,0,0,0-.7539-.17481,2.62481,2.62481,0,0,0-1.14356.24707,5.40231,5.40231,0,0,0-.84472.48047l-.26075-.42871c.11329-.07813.249-.165.41016-.25977a3.6431,3.6431,0,0,1,.53906-.26074,4.99985,4.99985,0,0,1,.65039-.20117,3.07844,3.07844,0,0,1,.72754-.085,2.04213,2.04213,0,0,1,.92285.18945,1.643,1.643,0,0,1,.61133.5127,2.13441,2.13441,0,0,1,.33789.76074,4.05508,4.05508,0,0,1,.1045.94238v3.99121h-.49414l-.05274-.80566h-.03809a6.93774,6.93774,0,0,1-1.03417.66894A2.47539,2.47539,0,0,1,200.58887,74.775Zm.10449-.49414a2.20672,2.20672,0,0,0,1.04-.25976,6.253,6.253,0,0,0,1.0791-.75391V71.148a13.00349,13.00349,0,0,0-1.625.28613,4.206,4.206,0,0,0-1.06641.40235,1.55232,1.55232,0,0,0-.57812.5332,1.2852,1.2852,0,0,0-.17578.66309,1.39038,1.39038,0,0,0,.10449.57226,1.02944,1.02944,0,0,0,.28516.38281,1.20767,1.20767,0,0,0,.42285.22168A1.78876,1.78876,0,0,0,200.69336,74.28084Z"/><path class="cls-1" d="M205.60742,68.3785h.49414l.05176,1.15723h.03906a3.06008,3.06008,0,0,1,.75977-.94922,1.56224,1.56224,0,0,1,1.00781-.36426,1.811,1.811,0,0,1,.3252.02637,1.09444,1.09444,0,0,1,.29882.10449l-.12988.51953a1.2634,1.2634,0,0,0-.27344-.084,1.79179,1.79179,0,0,0-.29882-.01954,1.45612,1.45612,0,0,0-.877.35743,2.98768,2.98768,0,0,0-.82617,1.24121v4.251h-.57129Z"/><path class="cls-1" d="M211.792,74.775a2.33077,2.33077,0,0,1-1.88476-.83886,3.68563,3.68563,0,0,1-.70215-2.42481,3.986,3.986,0,0,1,.22168-1.36426,3.13,3.13,0,0,1,.60449-1.04,2.64464,2.64464,0,0,1,.88379-.65722,2.53234,2.53234,0,0,1,1.05957-.22754,2.28068,2.28068,0,0,1,.99414.20215,5.0129,5.0129,0,0,1,.89063.56543L213.833,67.8453V65.272h.57226v9.34668h-.49414l-.05175-.80566h-.03907a4.15823,4.15823,0,0,1-.89062.66894A2.25656,2.25656,0,0,1,211.792,74.775Zm.07813-.50683a2.00684,2.00684,0,0,0,.99511-.2666,4.57129,4.57129,0,0,0,.96778-.76075V69.53573a3.393,3.393,0,0,0-.92969-.624,2.29035,2.29035,0,0,0-.88965-.18164,1.82834,1.82834,0,0,0-.87109.21387,2.19065,2.19065,0,0,0-.69531.585,2.83568,2.83568,0,0,0-.46192.88477,3.4968,3.4968,0,0,0-.16894,1.09765,4.32656,4.32656,0,0,0,.13672,1.13184,2.59336,2.59336,0,0,0,.39648.86426,1.81214,1.81214,0,0,0,1.52051.76074Z"/><polygon class="cls-2" points="41.685 25.457 30.346 70.811 19.008 45.3 33.181 56.638 24.677 31.126 41.685 50.969 58.693 31.126 50.007 56.707 64.362 45.3 53.024 70.811 41.685 25.457 41.685 25.457"/><path class="cls-1" d="M53.02393,72.31152q-.06445,0-.13038-.00586a1.49824,1.49824,0,0,1-1.32519-1.12988L45.87158,48.38867l-3.04785,3.55664a1.55067,1.55067,0,0,1-2.27734,0l-3.04834-3.55664L31.80127,71.17578a1.50007,1.50007,0,0,1-2.82568.24512L17.63721,45.90918a1.49974,1.49974,0,0,1,2.30761-1.78027l10.207,8.165L23.25439,31.60059a1.49991,1.49991,0,0,1,2.56153-1.45118L35.99609,42.02734,40.23,25.09277a1.5,1.5,0,0,1,2.91016,0l4.2334,16.93457L57.5542,30.14941a1.5,1.5,0,0,1,2.55908,1.459l-7.04541,20.751L63.4292,44.125a1.5,1.5,0,0,1,2.30371,1.78418L54.394,71.4209A1.4999,1.4999,0,0,1,53.02393,72.31152ZM51.27148,57.61816l2.1504,8.60352,7.08593-15.94336ZM22.87939,50.31738l7.06836,15.9043,2.13526-8.542ZM28.522,37.916l4.8584,14.57519L35.104,45.5957ZM48.26563,45.5957l1.6665,6.667,4.8418-14.25977Zm-9.87549-.77539,3.29492,3.84375,3.29443-3.84375L41.68506,31.6416Z"/></g></g></svg>